<?xml version="1.0" standalone="no"?>
<!DOCTYPE svg PUBLIC "-//W3C//DTD SVG 20010904//EN"
 "http://www.w3.org/TR/2001/REC-SVG-20010904/DTD/svg10.dtd">
<svg version="1.0" xmlns="http://www.w3.org/2000/svg"
 width="300.000000pt" height="300.000000pt" viewBox="0 0 300.000000 300.000000"
 preserveAspectRatio="xMidYMid meet">
<metadata>
Created by potrace 1.14, written by Peter Selinger 2001-2017
</metadata>
<g transform="translate(0.000000,300.000000) scale(0.100000,-0.100000)"
fill="#000000" stroke="none">
<path d="M0 2820 c0 -150 2 -180 14 -180 8 0 18 -9 21 -20 3 -11 11 -20 16
-20 6 0 8 4 5 8 -3 5 1 9 8 9 7 0 13 -5 14 -11 1 -6 5 -26 8 -45 4 -22 3 -32
-4 -27 -5 3 -13 -2 -16 -11 -4 -9 -1 -20 5 -24 8 -5 6 -9 -7 -12 -16 -4 -17
-5 -1 -6 9 0 17 -6 17 -11 0 -11 12 -28 44 -60 10 -11 15 -24 11 -31 -5 -8 -4
-10 3 -5 8 5 12 -3 12 -23 0 -16 5 -33 11 -37 6 -3 8 -15 6 -26 -3 -12 0 -21
10 -25 10 -4 13 -13 9 -29 -4 -15 -2 -24 6 -24 6 0 1 -10 -11 -22 -25 -22 -90
-35 -100 -19 -3 5 -23 12 -43 16 l-38 7 0 -574 0 -574 50 6 c28 4 68 6 90 5
22 -1 40 0 40 3 0 2 -9 15 -20 29 -11 14 -20 34 -20 44 0 16 4 17 26 8 32 -11
42 -5 25 15 -7 8 -11 23 -9 33 3 15 10 12 41 -19 21 -21 41 -38 45 -38 4 0 0
6 -8 13 -16 13 -50 62 -50 72 0 4 4 4 9 0 6 -3 9 7 8 22 -1 18 3 27 10 25 8
-1 13 9 13 29 0 20 4 29 13 26 6 -2 20 5 29 15 11 13 24 18 37 13 12 -4 21 -2
21 4 0 6 7 11 15 11 8 0 15 5 15 10 0 6 4 10 10 10 5 0 7 -13 4 -30 -4 -19 -2
-30 5 -30 6 0 11 14 11 30 0 23 4 30 20 30 14 0 18 -5 14 -17 -4 -11 -3 -14 3
-7 4 6 16 13 26 17 9 3 17 13 17 22 0 16 -15 21 -23 8 -2 -5 -2 -3 -1 4 2 7
-1 15 -7 19 -6 3 -4 11 7 18 13 10 14 17 5 34 -6 11 -9 27 -8 34 2 7 2 10 0 6
-7 -12 -23 -9 -23 3 0 7 -8 18 -17 26 -16 13 -16 13 5 3 16 -8 27 -8 40 0 16
11 16 11 -2 6 -14 -5 -17 -2 -12 11 4 9 1 20 -6 24 -9 6 -9 13 0 34 7 14 8 24
3 20 -6 -3 -15 4 -21 15 -6 11 -8 20 -4 20 3 0 -4 9 -17 20 l-24 20 24 18 c13
11 21 24 17 31 -4 6 -2 11 3 11 6 0 11 5 11 11 0 5 -4 8 -9 5 -5 -3 -9 0 -8 7
1 42 -4 56 -25 59 -24 3 -32 33 -15 55 5 7 6 17 2 23 -3 5 -2 10 2 10 11 0 37
-31 46 -54 10 -24 63 -13 99 22 15 14 31 22 35 18 4 -4 0 -12 -10 -17 -16 -9
-16 -12 -2 -26 12 -12 13 -18 4 -29 -15 -18 -28 -9 -22 16 3 11 0 20 -6 20
-10 0 -15 -13 -12 -32 0 -4 -11 -16 -26 -27 -29 -23 -19 -29 11 -6 10 8 23 12
28 8 6 -3 34 18 63 47 45 44 53 49 49 29 -5 -21 -3 -20 16 9 12 17 23 32 25
32 2 0 2 -19 1 -42 -3 -40 -3 -41 7 -15 6 15 14 27 19 27 15 0 -31 -102 -66
-145 -20 -24 -36 -52 -36 -62 0 -11 -5 -24 -12 -31 -6 -6 -10 -36 -9 -71 2
-52 -1 -60 -18 -66 -17 -5 -19 -10 -11 -30 7 -18 6 -24 -3 -22 -7 1 -12 -8
-11 -21 0 -15 -5 -22 -17 -22 -10 0 -23 -9 -29 -20 -9 -17 -8 -19 7 -13 14 4
15 3 7 -6 -12 -13 -7 -61 7 -61 5 0 9 7 9 15 0 26 29 29 50 5 20 -23 26 -16
14 14 -3 9 -13 16 -21 16 -10 0 -13 6 -9 16 3 9 6 18 6 20 0 2 5 4 11 4 6 0 9
-6 6 -14 -8 -20 16 -38 38 -29 14 5 17 3 13 -9 -6 -15 8 -38 24 -38 4 0 8 6 8
14 0 25 19 28 42 6 21 -19 23 -20 29 -3 4 13 0 20 -14 23 -11 3 -22 12 -25 20
-2 9 0 11 5 5 4 -5 19 -11 33 -13 14 -1 39 -5 55 -7 17 -3 38 -6 47 -6 10 0
20 -4 23 -10 10 -15 25 -10 25 9 1 15 2 15 16 -3 12 -16 18 -18 34 -7 27 17
32 15 25 -9 -6 -19 -5 -20 15 -9 24 13 23 14 40 -20 9 -17 10 -25 1 -28 -6 -2
-11 -8 -11 -13 0 -5 8 -4 18 2 12 8 17 20 14 34 -2 13 2 26 8 30 17 10 32 -16
18 -32 -8 -10 -6 -13 7 -13 13 0 16 -6 13 -25 -7 -32 6 -32 20 0 15 32 42 33
42 2 0 -13 -5 -28 -12 -35 -9 -9 -9 -12 3 -12 10 0 19 15 25 43 7 34 13 41 29
39 26 -3 69 -9 74 -11 3 0 -6 -13 -20 -27 l-24 -25 29 11 c23 8 36 7 67 -7 21
-10 39 -24 39 -32 0 -10 8 -12 30 -7 18 3 30 1 30 -5 0 -16 -122 -1 -136 17
-10 12 -14 10 -22 -15 -10 -27 -185 -191 -205 -191 -5 0 -7 15 -3 33 6 32 6
31 -20 -11 -34 -56 -55 -57 -43 -1 14 59 5 59 -23 0 -12 -28 -28 -53 -35 -56
-18 -6 -17 44 3 90 23 57 3 34 -31 -34 -16 -33 -36 -60 -42 -61 -18 0 -16 45
2 60 8 7 15 17 15 23 0 15 -38 -22 -45 -44 -4 -11 -14 -23 -24 -28 -15 -8 -16
-5 -13 27 3 20 1 34 -4 29 -9 -8 -34 52 -41 100 -3 18 -9 33 -14 33 -14 0 -11
-44 6 -84 10 -23 13 -50 9 -75 -4 -22 -1 -47 5 -60 13 -23 5 -69 -9 -55 -4 5
-16 40 -26 78 -10 38 -29 83 -43 100 -15 18 -18 25 -7 16 18 -14 18 -13 11 10
-4 14 -13 32 -21 40 -12 12 -14 9 -14 -22 0 -20 6 -43 13 -50 14 -16 15 -104
0 -119 -11 -11 -33 37 -33 72 0 12 -7 19 -20 19 -22 0 -27 15 -7 24 9 4 9 8 1
11 -7 3 -10 14 -7 25 4 15 1 18 -15 13 -16 -4 -19 -12 -16 -41 2 -21 1 -45 -2
-54 -8 -27 -44 0 -44 33 0 36 -10 42 -30 17 l-17 -22 -27 41 c-15 23 -34 44
-41 47 -19 7 1 -50 32 -89 13 -16 27 -34 31 -40 4 -5 8 -26 10 -45 3 -28 1
-33 -9 -23 -15 15 -33 17 -25 4 3 -5 -1 -12 -10 -15 -21 -8 -21 -8 -27 13 -3
15 2 21 22 26 26 7 26 7 6 23 -12 10 -33 37 -49 62 -15 25 -25 35 -21 23 4
-15 0 -26 -16 -37 -12 -8 -26 -13 -31 -10 -21 13 -5 -6 19 -21 23 -16 25 -16
20 -1 -4 9 -2 16 3 16 6 0 10 8 10 17 0 14 3 13 16 -6 10 -13 13 -26 7 -30
-14 -10 -8 -94 8 -103 8 -4 31 -14 53 -23 28 -11 37 -19 32 -31 -4 -11 -1 -14
12 -10 45 13 72 18 72 11 0 -16 -44 -84 -51 -79 -5 3 -6 -2 -3 -10 4 -11 0
-16 -11 -16 -9 0 -14 -4 -11 -9 4 -5 0 -12 -6 -15 -7 -3 -2 -3 12 1 14 4 41 8
60 8 20 0 48 8 63 18 32 21 37 21 37 2 0 -18 1 -18 35 -5 23 9 26 7 31 -18 5
-23 11 -27 37 -27 20 0 38 8 48 20 14 16 20 18 42 8 58 -27 104 -131 114 -261
4 -47 10 -71 17 -69 6 2 10 15 8 28 -2 17 8 8 38 -33 22 -31 56 -66 75 -78 28
-17 33 -25 25 -38 -17 -30 -34 -48 -63 -67 -28 -18 -28 -18 -57 10 -17 16 -30
25 -31 19 0 -5 -4 -1 -8 10 -4 12 -15 -25 -29 -105 -12 -68 -25 -136 -28 -151
l-6 -28 201 0 c110 0 201 2 201 5 0 3 -10 25 -22 48 -24 48 -148 356 -148 369
0 5 -15 48 -34 96 -28 71 -66 203 -66 228 0 3 7 -2 16 -10 23 -24 80 -21 98 5
14 21 18 21 76 10 33 -7 79 -18 100 -26 50 -18 51 -11 3 14 -28 15 -33 20 -18
21 21 0 54 -20 151 -90 77 -56 121 -98 176 -169 62 -79 166 -186 148 -152 -18
34 -83 125 -92 129 -5 2 -8 8 -8 13 0 5 -18 28 -40 51 -32 35 -40 50 -40 81 0
35 1 37 21 26 32 -17 212 -78 203 -69 -24 23 -166 91 -180 86 -8 -3 -12 -2 -9
4 3 6 3 10 -2 10 -24 1 -33 17 -23 44 5 15 14 25 19 21 12 -7 25 31 16 45 -9
14 26 111 42 117 13 5 181 -50 233 -77 19 -10 64 -44 100 -75 264 -228 266
-228 390 -229 69 -1 75 -3 72 -21 -11 -68 -9 -101 6 -118 16 -18 15 -20 -3
-33 -10 -8 -25 -14 -33 -14 -7 0 -12 -3 -10 -7 13 -30 82 -159 107 -201 17
-30 31 -68 33 -92 l2 -40 203 0 203 0 0 713 c0 463 -4 707 -10 697 -8 -12 -10
-11 -10 7 0 12 5 25 10 28 16 10 12 55 -5 55 -8 0 -15 4 -15 9 0 5 7 16 15 25
19 19 22 205 3 224 -9 9 -9 15 0 24 7 7 12 28 12 48 0 35 -1 37 -37 38 -46 2
-59 16 -68 69 -8 52 5 61 65 45 36 -9 40 -8 40 8 0 15 -11 20 -45 26 -25 3
-48 10 -51 15 -3 5 -10 7 -15 4 -13 -9 -11 9 4 24 10 11 10 14 0 18 -39 14 29
46 77 36 23 -4 30 -2 30 11 0 8 -10 18 -22 20 -92 19 -103 23 -103 36 0 10 23
23 62 35 l63 20 0 383 0 382 -297 0 -298 0 -1 -117 c-2 -156 -3 -161 -25 -168
-10 -4 -19 -9 -19 -13 0 -4 -25 -7 -55 -7 -42 0 -58 4 -70 20 -16 20 -42 71
-45 90 -1 6 -6 15 -10 20 -5 6 -8 48 -7 93 l2 82 -315 -1 c-215 0 -307 -4
-289 -10 24 -9 36 -31 43 -84 2 -13 -15 -25 -34 -25 -11 0 -12 2 -3 8 9 6 7
11 -7 20 -16 9 -21 9 -28 -5 -8 -14 -11 -13 -18 8 -13 36 -11 63 6 76 12 10
-91 12 -500 12 -402 0 -512 -3 -499 -12 9 -7 14 -18 12 -25 -3 -8 1 -10 12 -5
14 5 16 2 10 -15 -4 -13 -2 -22 4 -22 17 0 13 -41 -6 -64 -18 -21 -18 -21 3
-3 27 22 37 22 96 -8 27 -14 51 -25 53 -25 1 0 5 9 8 20 7 29 34 35 73 17 32
-16 34 -16 44 3 7 13 21 20 38 20 71 0 104 -72 76 -170 -11 -39 -24 -65 -40
-75 -13 -8 -24 -25 -25 -38 0 -12 -4 -30 -8 -41 -7 -17 -8 -17 -24 -1 -16 16
-15 19 19 61 43 52 26 60 -21 9 l-32 -36 -2 63 c-2 71 -15 95 -30 56 -5 -15
-15 -29 -20 -33 -6 -3 -11 -15 -11 -26 0 -10 -4 -19 -9 -19 -5 0 -6 21 -3 46
2 25 -1 63 -8 85 -14 43 -36 55 -26 14 5 -18 2 -25 -8 -25 -9 0 -13 6 -10 14
3 7 -9 25 -26 40 -52 43 -110 48 -110 8 0 -14 -9 -21 -31 -26 -53 -10 -63 -8
-49 9 7 8 18 15 25 15 7 0 19 8 26 17 13 15 12 15 -5 6 -15 -8 -23 -7 -33 3
-11 10 -19 11 -38 2 -30 -13 -74 5 -76 31 0 11 -2 12 -6 4 -2 -7 -9 -13 -14
-13 -6 0 -7 5 -4 10 3 6 1 10 -5 10 -6 0 -8 10 -4 25 7 30 -17 60 -35 42 -8
-8 -11 -5 -11 11 0 17 -6 22 -26 22 -14 0 -23 4 -20 9 9 14 -47 10 -62 -5 -14
-15 -36 -9 -27 7 4 5 -7 9 -24 9 -21 0 -32 -6 -36 -20 -3 -11 -11 -20 -16 -20
-5 0 -9 9 -9 20 0 17 -7 20 -40 20 l-40 0 0 -180z m1862 72 c8 -34 -3 -50 -40
-56 -33 -5 -41 -2 -67 26 -21 22 -24 30 -11 25 13 -5 17 -3 13 7 -12 30 45 50
79 29 12 -8 24 -22 26 -31z m-1382 -78 c0 -8 -5 -12 -10 -9 -6 4 -8 11 -5 16
9 14 15 11 15 -7z m704 -52 c-20 -19 -33 -25 -41 -19 -7 5 -13 13 -13 17 0 10
41 28 64 29 16 1 14 -3 -10 -27z m146 -13 c12 -27 11 -33 -9 -52 -17 -18 -23
-19 -30 -8 -5 8 -14 10 -22 6 -8 -5 -11 -5 -7 0 4 4 3 15 -2 25 -6 11 -4 24 6
38 22 31 49 28 64 -9z m-863 -16 c-3 -10 -5 -4 -5 12 0 17 2 24 5 18 2 -7 2
-21 0 -30z m647 29 c2 -4 -12 -25 -31 -46 -32 -35 -38 -38 -57 -26 -20 12 -20
12 -3 -7 23 -26 22 -36 -3 -28 -15 5 -20 2 -21 -12 0 -17 -1 -16 -8 1 -7 18
-8 18 -14 2 -4 -10 -1 -24 8 -32 17 -17 18 -24 7 -42 -5 -7 -15 -10 -24 -7
-12 5 -13 17 -6 68 9 63 38 109 83 127 26 11 62 12 69 2z m512 -46 c16 -17 18
-36 4 -36 -6 0 -20 -9 -32 -20 -12 -11 -17 -20 -10 -20 9 0 9 -7 -1 -27 -12
-29 -17 -35 -56 -68 l-24 -20 17 27 c9 14 23 29 30 31 7 3 16 17 18 32 4 21 2
25 -11 21 -9 -4 -6 2 7 14 13 11 22 25 19 32 -4 13 9 48 19 48 3 0 12 -6 20
-14z m336 -1 c0 -14 -29 -31 -38 -22 -9 8 16 39 28 35 5 -2 10 -8 10 -13z
m-1448 -20 c-4 -15 -1 -32 6 -40 15 -18 0 -20 -22 -2 -21 16 -27 39 -14 54 20
22 37 15 30 -12z m714 -34 c-2 -3 -12 -25 -22 -48 -20 -43 -46 -64 -46 -37 0
27 38 91 55 91 8 0 14 -3 13 -6z m433 -63 c-21 -21 -35 -28 -38 -21 -2 7 -11
9 -20 6 -11 -4 -14 -3 -9 6 5 7 14 10 21 8 6 -3 25 3 41 14 42 27 43 23 5 -13z
m59 29 c0 -2 -15 -16 -32 -33 l-33 -29 29 33 c28 30 36 37 36 29z m-1175 -47
c11 -10 29 -20 39 -22 32 -5 29 -24 -6 -39 -34 -14 -98 -66 -98 -79 0 -5 18
-11 40 -15 39 -7 50 -18 30 -30 -6 -4 -26 2 -44 13 l-34 20 -26 -27 c-14 -15
-26 -34 -26 -42 0 -20 163 -161 201 -173 37 -13 40 -27 9 -42 -13 -7 -18 -14
-11 -18 17 -11 13 -36 -5 -36 -8 0 -12 5 -9 10 3 6 3 20 0 31 -6 19 -12 20
-66 14 -41 -5 -59 -4 -59 4 0 7 7 14 15 17 8 4 15 12 15 19 0 15 -135 136
-144 128 -6 -6 1 -95 9 -121 3 -7 16 -17 30 -22 25 -9 32 -24 17 -34 -14 -8
-151 -11 -159 -2 -4 4 4 17 20 28 23 16 27 27 27 65 0 32 -5 50 -17 60 -13 10
-15 16 -5 19 8 4 12 32 12 90 0 78 -2 85 -25 100 -33 21 -27 37 16 46 19 4 47
10 62 14 22 5 34 1 55 -18 15 -14 36 -30 47 -36 16 -9 9 -11 -37 -9 l-58 3 0
-73 c0 -40 2 -73 4 -73 7 0 116 139 116 148 0 6 -7 12 -15 16 -8 3 -15 11 -15
19 0 7 -12 18 -27 24 l-28 11 27 1 c15 1 30 -3 33 -9 3 -5 18 -10 33 -9 26 0
26 1 5 9 -12 5 -26 18 -32 29 -21 38 37 32 84 -9z m818 11 c3 -12 0 -18 -7
-15 -6 2 -12 13 -12 24 0 23 12 17 19 -9z m-659 3 c3 -8 2 -12 -4 -9 -6 3 -10
10 -10 16 0 14 7 11 14 -7z m1390 -21 c9 -21 -12 -43 -40 -43 -19 0 -24 5 -24
25 0 40 50 55 64 18z m-1437 -4 c18 -18 25 -20 38 -9 19 15 37 2 60 -43 19
-38 19 -43 0 -27 -8 7 -15 8 -15 3 0 -5 -14 -8 -30 -5 -21 3 -32 11 -36 27 -4
15 -11 22 -20 18 -10 -4 -12 0 -8 11 4 12 0 16 -15 16 -14 0 -19 5 -15 15 8
20 13 19 41 -6z m833 -34 c-19 -27 -39 -45 -51 -45 -15 0 -10 9 27 45 25 25
47 45 50 45 3 0 -9 -20 -26 -45z m-444 26 c9 7 14 4 19 -10 3 -12 11 -21 16
-21 5 0 9 -7 9 -15 0 -14 4 -14 38 0 20 9 39 20 40 25 2 6 8 10 14 10 6 0 8
-6 5 -14 -3 -7 0 -19 6 -25 14 -14 2 -14 -24 -1 -14 8 -19 8 -17 -2 2 -6 -3
-12 -11 -13 -8 0 -16 -6 -18 -12 -6 -16 2 -16 30 -2 l22 12 -20 -22 c-14 -16
-16 -24 -7 -30 6 -4 13 -19 14 -34 2 -18 7 -26 15 -23 7 3 13 2 13 -3 0 -5 -8
-11 -19 -14 -10 -2 -20 -15 -23 -28 -3 -13 -9 -32 -13 -41 -5 -13 -2 -18 11
-19 14 -1 12 -3 -6 -8 -15 -4 -26 -15 -28 -29 -4 -25 10 -29 28 -7 17 20 30
19 30 -3 0 -12 -19 -29 -52 -48 -69 -38 -72 -39 -62 -23 4 8 7 26 5 41 -1 15
7 48 18 74 12 25 21 54 20 63 0 10 -2 12 -6 3 -2 -6 -9 -10 -13 -7 -5 3 -6 13
-3 22 11 28 -16 5 -33 -29 -12 -23 -13 -33 -4 -38 8 -5 5 -9 -8 -12 -12 -3
-32 -28 -46 -56 -31 -61 -43 -70 -64 -48 -15 15 -15 22 11 94 36 102 35 153
-3 107 -17 -20 -33 -8 -20 16 13 23 67 52 81 43 7 -4 9 -26 4 -60 -3 -30 -2
-54 2 -54 9 0 73 85 73 96 0 4 -7 4 -15 0 -18 -6 -20 15 -3 32 18 18 0 27 -31
15 -38 -14 -84 9 -79 40 4 27 67 72 82 57 6 -6 14 -6 22 1z m391 -23 c-3 -7
-5 -2 -5 12 0 14 2 19 5 13 2 -7 2 -19 0 -25z m27 17 c-4 -8 -8 -15 -10 -15
-2 0 -4 7 -4 15 0 8 4 15 10 15 5 0 7 -7 4 -15z m-54 1 c0 -3 -4 -8 -10 -11
-5 -3 -10 -1 -10 4 0 6 5 11 10 11 6 0 10 -2 10 -4z m201 -9 c-1 -12 -15 -9
-19 4 -3 6 1 10 8 8 6 -3 11 -8 11 -12z m749 -115 c-17 -50 -30 -101 -30 -112
0 -26 22 -26 45 0 21 24 35 26 35 5 0 -25 -60 -85 -85 -85 -24 0 -35 17 -35
56 0 22 -4 20 -41 -21 -42 -45 -74 -56 -97 -33 -47 47 50 225 141 258 18 6 43
17 57 24 14 7 28 10 32 7 4 -4 -6 -48 -22 -99z m-766 59 c-1 -21 2 -22 41 -17
34 6 45 3 61 -15 23 -26 24 -101 0 -146 -22 -43 -73 -83 -106 -83 -35 0 -44
-11 -64 -79 -23 -78 -21 -121 4 -121 11 0 20 6 20 14 0 14 29 30 38 21 3 -3
-3 -13 -12 -24 -12 -14 -14 -21 -6 -26 25 -16 -9 -23 -84 -18 -74 6 -78 7 -59
22 26 21 28 28 69 216 39 183 39 185 19 185 -21 0 -19 17 5 30 11 6 20 19 20
28 0 10 6 24 12 30 19 19 43 9 42 -17z m-209 1 c-3 -3 -11 0 -18 7 -9 10 -8
11 6 5 10 -3 15 -9 12 -12z m695 -9 c0 -9 -9 -36 -20 -59 -20 -40 -39 -144
-27 -144 3 0 13 3 21 6 12 5 14 10 6 19 -8 10 -8 15 0 20 16 10 21 2 26 -45 2
-25 0 -39 -6 -35 -6 3 -10 2 -10 -2 0 -9 -7 -10 -65 -15 -26 -3 -30 1 -33 25
-3 23 10 76 35 144 3 6 -6 14 -19 18 -22 8 -21 9 21 46 47 42 71 49 71 22z
m-1480 -18 c0 -8 -7 -11 -20 -8 -23 6 -26 19 -7 26 16 6 27 -1 27 -18z m607
19 c-3 -3 -12 -4 -19 -1 -8 3 -5 6 6 6 11 1 17 -2 13 -5z m707 -15 c34 -27 33
-54 -3 -90 -23 -22 -39 -29 -70 -29 -49 0 -70 -27 -52 -66 13 -30 41 -31 92
-2 21 12 41 19 45 16 10 -11 -17 -49 -49 -68 -53 -33 -99 -25 -122 21 -36 69
-2 184 65 220 44 24 61 24 94 -2z m-1489 -17 c-3 -3 -11 0 -18 7 -9 10 -8 11
6 5 10 -3 15 -9 12 -12z m842 -5 c-3 -8 -20 -19 -39 -26 -30 -10 -31 -9 -14 4
11 8 26 15 33 15 7 0 12 3 12 8 -3 15 1 25 7 19 4 -3 4 -13 1 -20z m142 -13
c61 -78 -25 -254 -123 -254 -43 0 -76 43 -76 99 0 128 137 234 199 155z m-540
-30 c27 -34 26 -38 -6 -74 -21 -24 -40 -33 -78 -38 -45 -6 -50 -10 -53 -35 -7
-59 45 -75 98 -31 43 36 61 19 25 -24 -30 -36 -88 -56 -116 -42 -76 41 -61
199 24 250 45 28 81 26 106 -6z m-269 -22 c0 -15 5 -33 12 -40 19 -19 -5 -13
-29 7 -26 22 -28 32 -11 49 19 19 28 14 28 -16z m2356 -87 c-11 -8 -25 -15
-32 -15 -7 0 -19 -3 -28 -6 -9 -3 -16 -2 -16 3 0 14 40 32 70 32 24 0 24 0 6
-14z m-1906 -45 c0 -5 -2 -10 -4 -10 -3 0 -8 5 -11 10 -3 6 -1 10 4 10 6 0 11
-4 11 -10z m-750 -9 c0 -5 -7 -14 -15 -21 -12 -10 -15 -10 -15 2 0 8 3 18 7
21 9 10 23 9 23 -2z m2365 -10 c-6 -5 -21 -12 -35 -15 l-25 -7 25 15 c28 17
50 21 35 7z m-425 -20 c12 -23 2 -32 -28 -24 -33 8 -26 38 10 42 4 1 12 -8 18
-18z m446 -22 c-1 -23 -8 -34 -25 -40 -25 -10 -45 -3 -36 12 4 5 1 9 -4 9 -22
0 -10 17 22 33 44 22 45 21 43 -14z m-1296 -14 c0 -9 -7 -18 -15 -21 -20 -8
-19 -24 1 -24 12 0 15 -6 10 -24 -3 -14 -2 -28 4 -31 5 -3 10 2 10 11 0 14 3
15 12 6 9 -9 9 -15 0 -24 -10 -9 -16 -8 -29 4 -14 15 -18 15 -27 3 -9 -12 -18
-13 -49 -4 -38 10 -38 11 -21 30 13 15 14 19 3 20 -8 1 0 4 16 8 17 4 29 12
28 19 -2 7 6 12 17 12 11 0 20 7 20 15 0 8 5 15 10 15 6 0 10 -7 10 -15z
m1435 -10 c0 -16 -8 -21 -42 -23 -34 -2 -43 0 -43 13 0 18 35 35 65 32 13 -1
20 -9 20 -22z m-1644 -29 c4 -5 11 -6 15 -3 5 3 17 -1 27 -8 15 -11 15 -14 2
-25 -12 -10 -15 -9 -15 6 0 13 -3 15 -11 7 -8 -8 -24 -5 -60 11 -27 11 -49 24
-49 27 0 3 10 11 23 16 21 10 47 -1 68 -31z m802 -11 c2 -14 0 -25 -6 -25 -6
0 -7 -16 -3 -41 6 -39 5 -40 -16 -34 -35 11 -75 52 -61 66 7 7 15 5 27 -7 16
-15 17 -15 10 10 -4 16 -2 26 5 26 19 0 12 20 -6 20 -16 1 -16 2 1 15 23 18
42 6 49 -30z m242 35 c-3 -5 0 -10 8 -10 20 0 29 -26 13 -39 -6 -6 -22 -8 -34
-4 -18 4 -22 1 -22 -17 0 -20 -4 -22 -35 -17 -21 3 -33 2 -30 -4 4 -5 1 -9 -4
-9 -6 0 -11 3 -11 8 0 4 -4 24 -9 44 -7 30 -6 35 6 31 8 -3 12 -12 9 -19 -6
-16 10 -19 19 -4 4 6 15 8 25 5 13 -4 20 0 25 15 4 11 10 18 15 15 5 -3 11 -1
15 5 3 5 8 10 11 10 3 0 2 -4 -1 -10z m225 -20 c-8 -5 -19 -10 -25 -10 -5 0
-3 5 5 10 8 5 20 10 25 10 6 0 3 -5 -5 -10z m-1416 -50 c10 -13 9 -13 -6 -1
-10 7 -17 23 -17 35 1 20 2 20 6 1 3 -11 10 -27 17 -35z m-895 18 c-9 -16 -14
-19 -17 -9 -2 7 2 17 9 22 20 13 21 11 8 -13z m2329 -3 c-39 -26 -58 -31 -58
-15 0 13 50 39 75 40 15 0 11 -6 -17 -25z m349 -27 l4 -48 -41 0 c-35 0 -42 4
-51 27 -15 39 -7 57 26 64 51 11 57 7 62 -43z m-1697 32 c0 -5 -4 -10 -9 -10
-6 0 -13 5 -16 10 -3 6 1 10 9 10 9 0 16 -4 16 -10z m-684 -22 c-10 -6 -20 -7
-24 -3 -9 8 20 25 31 18 5 -3 2 -10 -7 -15z m2044 -2 c0 -2 -7 -7 -16 -10 -8
-3 -12 -2 -9 4 6 10 25 14 25 6z m-2317 -26 c3 -11 2 -20 -3 -20 -4 0 -10 9
-13 20 -3 11 -2 20 3 20 4 0 10 -9 13 -20z m230 1 c-3 -13 -11 -18 -21 -14
-14 5 -15 4 -4 -8 11 -12 15 -12 25 1 7 8 21 16 32 18 18 2 18 1 -4 -18 -13
-11 -30 -20 -38 -20 -10 0 -12 -6 -8 -21 6 -18 5 -20 -14 -10 -25 14 -26 23
-6 61 17 34 46 42 38 11z m826 8 c17 -6 31 -15 31 -19 0 -5 -20 -2 -45 7 -25
8 -45 17 -45 19 0 7 27 4 59 -7z m1360 -17 c17 -31 -3 -46 -57 -43 -30 1 -39
28 -16 46 26 20 61 18 73 -3z m-1421 -13 c2 -5 9 -6 15 -2 7 3 9 3 5 -2 -5 -5
6 -17 22 -27 37 -22 63 -23 35 -1 -19 15 -19 15 8 9 19 -5 26 -3 22 4 -3 5 2
10 12 11 16 0 16 1 -2 10 -15 7 -11 7 14 3 23 -4 31 -3 27 5 -9 14 0 14 25 1
27 -15 24 -38 -6 -46 -23 -6 -36 -24 -16 -24 5 0 12 -7 15 -16 3 -8 2 -13 -3
-9 -5 3 -11 0 -13 -6 -6 -18 -93 -2 -120 22 l-23 20 33 -16 c18 -9 39 -14 45
-11 7 2 5 5 -4 5 -9 1 -37 17 -62 36 -25 19 -50 35 -56 35 -5 0 -13 5 -17 11
-4 8 1 9 17 4 13 -4 26 -12 27 -16z m52 -9 c0 -5 -2 -10 -4 -10 -3 0 -8 5 -11
10 -3 6 -1 10 4 10 6 0 11 -4 11 -10z m400 -5 c0 -8 -2 -15 -4 -15 -2 0 -6 7
-10 15 -3 8 -1 15 4 15 6 0 10 -7 10 -15z m600 0 c0 -2 -13 -11 -30 -20 -38
-19 -40 -11 -2 9 31 17 32 18 32 11z m-1040 -35 c0 -15 -5 -12 -26 11 -19 22
-19 22 4 10 12 -6 22 -16 22 -21z m1060 12 c0 -4 -14 -16 -30 -25 -40 -24 -61
-11 -23 14 29 20 53 25 53 11z m-1195 -11 c3 -5 1 -12 -5 -16 -5 -3 -10 1 -10
9 0 18 6 21 15 7z m583 -18 c2 -8 -6 -13 -22 -13 -28 0 -43 15 -24 23 20 8 41
3 46 -10z m-688 -3 c0 -5 -6 -10 -14 -10 -8 0 -17 -10 -19 -22 -3 -17 -5 -14
-6 10 -1 26 3 32 19 32 11 0 20 -4 20 -10z m1749 -3 c8 -11 7 -18 -7 -29 -35
-31 -59 -31 -81 0 -11 16 -18 32 -14 36 12 12 91 6 102 -7z m-1683 -57 l14
-35 -24 29 c-13 16 -29 25 -35 22 -6 -4 -11 -3 -11 3 0 10 20 21 33 17 5 -1
15 -17 23 -36z m-397 -2 c-15 -21 -24 -27 -27 -18 -3 7 5 22 18 32 32 26 34
22 9 -14z m1839 15 c28 -18 62 -52 62 -62 -1 -19 -61 -70 -93 -79 -34 -9 -37
-9 -37 9 0 11 -4 18 -9 15 -15 -10 -40 5 -34 20 3 8 0 14 -7 14 -21 0 -40 33
-28 47 8 10 6 13 -6 13 -10 0 -14 5 -11 11 20 31 121 39 163 12z m-1318 -63
c8 -15 7 -19 -7 -17 -11 0 -19 10 -19 24 -2 25 10 22 26 -7z m-335 9 c-4 -6 0
-18 9 -27 9 -9 24 -28 35 -41 17 -23 19 -23 40 -9 16 12 31 14 57 8 49 -11 54
-20 12 -20 -37 0 -48 -15 -48 -66 0 -21 -35 -74 -49 -74 -4 0 -17 10 -30 21
-20 19 -26 20 -48 8 -39 -21 -58 -2 -59 62 -1 63 20 121 50 136 29 14 38 15
31 2z m1941 -21 c35 -6 61 -15 58 -19 -2 -4 4 -10 13 -13 10 -3 24 -15 31 -27
13 -21 13 -21 -25 -15 -96 18 -90 17 -68 6 11 -5 32 -14 48 -20 34 -12 35 -28
2 -36 -31 -8 -208 21 -213 34 -2 6 -11 8 -22 5 -10 -3 -25 -1 -34 4 -13 7 -9
14 21 37 32 26 92 54 117 56 5 0 37 -5 72 -12z m-1586 -87 c0 -6 -5 -13 -11
-17 -6 -4 19 -17 57 -29 71 -22 114 -44 114 -58 0 -4 -10 -1 -22 7 -13 8 -66
29 -118 46 -52 18 -102 36 -110 42 -16 10 -15 10 38 -6 12 -4 22 -4 21 1 -3
17 1 23 16 23 8 0 15 -4 15 -9z m-962 -52 c10 -14 10 -18 -4 -23 -12 -4 -15
-2 -10 9 3 10 -1 15 -12 15 -14 0 -15 2 -2 10 8 5 15 8 15 7 0 -1 6 -9 13 -18z
m2322 1 c13 -9 13 -11 0 -20 -22 -14 -66 -12 -79 3 -6 8 -8 17 -4 20 10 10 66
8 83 -3z m444 -6 c20 -8 21 -28 1 -44 -22 -19 -48 5 -34 31 11 21 11 21 33 13z
m-644 -28 c0 -8 3 -21 6 -29 3 -8 -2 -17 -13 -21 -10 -3 -24 -9 -30 -12 -19
-8 -16 41 3 60 19 20 34 20 34 2z m354 -2 c10 -26 7 -34 -11 -34 -25 1 -56 26
-48 39 10 17 52 13 59 -5z m109 -4 c22 -26 21 -30 -2 -30 -22 0 -45 25 -36 40
9 15 18 12 38 -10z m82 -18 c-5 -5 -45 22 -45 31 0 4 11 0 24 -10 13 -10 23
-19 21 -21z m-818 -8 c-16 -9 -32 -13 -35 -9 -9 9 19 25 43 24 16 0 15 -2 -8
-15z m525 -34 c11 0 18 -5 16 -12 -3 -7 2 -19 9 -27 21 -21 5 -29 -81 -42
l-80 -12 -22 28 c-37 47 -17 80 61 100 36 9 42 8 58 -12 10 -13 27 -23 39 -23z
m407 -4 c13 -16 5 -42 -15 -50 -9 -3 -12 -10 -9 -16 3 -5 4 -10 2 -10 -3 0
-14 14 -25 32 -19 30 -19 33 -4 45 22 16 37 16 51 -1z m-1119 -1 c0 -4 -66
-35 -105 -49 -18 -6 -18 -5 -5 8 20 20 110 54 110 41z m1014 -11 c10 -26 7
-34 -11 -34 -25 1 -56 26 -48 39 10 17 52 13 59 -5z m-136 -16 c3 -13 -3 -18
-21 -18 -24 0 -42 21 -29 34 12 13 47 1 50 -16z m-1364 -5 c22 9 30 -10 11
-29 -18 -18 -18 -18 -34 13 -13 26 -15 44 -2 24 5 -8 16 -11 25 -8z m60 2 c-6
-16 -24 -21 -24 -7 0 11 11 22 21 22 5 0 6 -7 3 -15z m86 -15 c-12 -23 -40
-27 -40 -6 0 13 14 21 43 25 4 0 3 -8 -3 -19z m-910 -20 c0 -5 -4 -10 -10 -10
-5 0 -10 5 -10 10 0 6 5 10 10 10 6 0 10 -4 10 -10z m1000 -32 c0 -5 -6 -7
-12 -4 -7 3 -21 9 -30 12 -19 7 -23 16 -12 27 8 8 54 -22 54 -35z m1254 6 c4
-9 1 -23 -6 -31 -10 -13 -14 -12 -25 3 -7 10 -13 24 -13 31 0 19 37 16 44 -3z
m-128 -12 c19 -16 59 -100 51 -108 -2 -2 -69 -6 -150 -9 -126 -5 -147 -4 -147
9 0 8 -6 19 -13 23 -18 11 -27 37 -18 51 9 15 154 50 211 51 29 0 53 -6 66
-17z m-1417 3 c-3 -2 -23 -7 -45 -11 -50 -7 -115 -21 -140 -30 -16 -6 -17 -5
-6 7 6 7 42 18 80 25 72 13 118 17 111 9z m1628 -21 c5 -17 -15 -37 -31 -31
-14 5 -15 11 -6 27 11 21 31 23 37 4z m-1429 -22 c2 -7 -3 -12 -12 -12 -9 0
-16 7 -16 16 0 17 22 14 28 -4z m1463 -29 c-9 -15 -10 -12 -10 17 0 29 1 32
10 18 7 -12 7 -24 0 -35z m-1591 27 c0 -5 -4 -10 -10 -10 -5 0 -10 5 -10 10 0
6 5 10 10 10 6 0 10 -4 10 -10z m54 -40 c7 -24 6 -24 -8 -6 -9 11 -16 27 -16
35 0 21 16 2 24 -29z m-764 16 c0 -2 -7 -6 -15 -10 -8 -3 -15 -1 -15 4 0 6 7
10 15 10 8 0 15 -2 15 -4z m910 -15 c0 -22 -15 -35 -29 -27 -13 9 -1 46 15 46
8 0 14 -9 14 -19z m70 -20 c0 -11 -4 -23 -10 -26 -6 -4 -10 5 -10 19 0 14 5
26 10 26 6 0 10 -9 10 -19z m-1230 -1 c0 -5 -4 -10 -10 -10 -5 0 -10 5 -10 10
0 6 5 10 10 10 6 0 10 -4 10 -10z m2430 -4 c0 -8 -4 -17 -9 -21 -12 -7 -24 12
-16 25 9 15 25 12 25 -4z m80 -21 c0 -28 -15 -34 -24 -9 -10 25 -7 34 9 34 9
0 15 -9 15 -25z m-1458 -27 c-9 -9 -12 -7 -12 12 0 19 3 21 12 12 9 -9 9 -15
0 -24z m288 23 c0 -20 -13 -41 -25 -41 -18 0 -26 25 -12 39 13 13 37 15 37 2z
m1230 -34 c0 -10 -4 -15 -10 -12 -5 3 -10 18 -10 33 0 21 2 24 10 12 5 -8 10
-23 10 -33z m-1868 -2 c-11 -21 -25 -4 -16 20 4 10 10 13 16 7 7 -7 7 -16 0
-27z m33 25 c3 -5 1 -10 -4 -10 -6 0 -11 5 -11 10 0 6 2 10 4 10 3 0 8 -4 11
-10z m361 -37 c-11 -11 -19 6 -11 24 8 17 8 17 12 0 3 -10 2 -21 -1 -24z m64
33 c0 -3 -4 -8 -10 -11 -5 -3 -10 -1 -10 4 0 6 5 11 10 11 6 0 10 -2 10 -4z
m-142 -33 c6 -15 12 -32 12 -39 0 -7 6 -14 13 -17 9 -4 9 -7 0 -18 -10 -10
-15 -6 -27 22 -22 54 -28 79 -19 79 4 0 14 -12 21 -27z m1396 12 c8 -9 13 -21
10 -29 -3 -7 -1 -24 5 -38 8 -21 5 -30 -15 -51 -14 -15 -29 -27 -33 -27 -5 0
-34 11 -64 25 -52 22 -88 32 -129 34 -9 1 -23 7 -30 14 -7 7 -25 21 -40 31
-16 10 -28 22 -28 26 0 11 124 27 222 28 66 2 90 -2 102 -13z m-1174 -44 c-6
-12 -15 -19 -21 -16 -13 8 -11 29 3 43 18 18 32 -2 18 -27z m1250 -2 c0 -17
-4 -28 -10 -24 -5 3 -10 17 -10 31 0 13 5 24 10 24 6 0 10 -14 10 -31z m-1420
1 c0 -5 -2 -10 -4 -10 -3 0 -8 5 -11 10 -3 6 -1 10 4 10 6 0 11 -4 11 -10z
m95 0 c-3 -5 -10 -10 -16 -10 -5 0 -9 5 -9 10 0 6 7 10 16 10 8 0 12 -4 9 -10z
m189 -25 c3 -9 0 -15 -9 -15 -8 0 -15 7 -15 15 0 8 4 15 9 15 5 0 11 -7 15
-15z m-246 -32 c-10 -12 -13 -12 -20 1 -13 23 0 40 18 25 11 -9 12 -15 2 -26z
m1435 -5 c-10 -21 -12 -21 -18 -5 -10 25 2 54 17 39 8 -8 8 -18 1 -34z m-1271
10 c-7 -7 -12 -8 -12 -2 0 14 12 26 19 19 2 -3 -1 -11 -7 -17z m1308 -25 c0
-27 -3 -34 -11 -26 -7 7 -9 23 -5 37 9 37 16 32 16 -11z m-1681 -16 c1 10 8
10 29 2 15 -6 47 -12 72 -14 40 -2 45 -5 42 -24 -2 -15 2 -21 17 -21 18 0 19
-3 11 -24 -5 -15 -5 -26 0 -28 19 -6 -10 -32 -37 -33 -18 0 -28 -5 -28 -15 0
-8 -8 -16 -17 -18 -10 -2 -18 1 -18 7 0 6 -7 8 -16 4 -13 -5 -15 -2 -9 17 8
24 7 24 -24 -3 -18 -15 -41 -27 -52 -27 -25 0 -25 30 0 37 13 3 17 11 14 24
-6 23 -16 24 -33 4 -7 -8 -17 -15 -22 -15 -6 0 -32 -11 -60 -25 -63 -32 -75
-31 -54 0 9 14 14 29 12 34 -6 9 119 125 144 133 8 3 18 -2 22 -11 4 -9 7 -10
7 -4z m339 11 c-6 -18 -28 -21 -28 -4 0 9 7 16 16 16 9 0 14 -5 12 -12z m1047
-28 c50 -13 115 -41 115 -49 -1 -22 -30 -86 -41 -90 -8 -2 -22 -13 -31 -24
-17 -19 -18 -19 -55 11 -38 30 -123 118 -91 93 10 -7 26 -10 35 -6 16 6 14 9
-10 21 -15 8 -25 19 -22 24 4 6 0 10 -7 10 -9 0 -9 3 2 10 19 13 55 12 105 0z
m175 -10 c0 -5 -7 -10 -15 -10 -8 0 -15 5 -15 10 0 6 7 10 15 10 8 0 15 -4 15
-10z m-1307 -20 c-3 -11 -9 -20 -14 -20 -5 0 -9 9 -9 20 0 11 6 20 14 20 9 0
12 -7 9 -20z m97 10 c0 -5 -2 -10 -4 -10 -3 0 -8 5 -11 10 -3 6 -1 10 4 10 6
0 11 -4 11 -10z m1280 -30 c0 -19 -5 -30 -14 -30 -19 0 -26 21 -14 43 14 27
28 20 28 -13z m40 -30 c0 -16 -4 -30 -10 -30 -5 0 -10 14 -10 30 0 17 5 30 10
30 6 0 10 -13 10 -30z m-100 -24 c0 -25 -26 -43 -33 -23 -4 13 14 47 25 47 5
0 8 -11 8 -24z m-2382 -6 c-14 -22 -24 -19 -15 5 4 8 11 15 17 15 6 0 6 -7 -2
-20z m1140 -30 c23 -17 42 -33 42 -36 0 -8 -79 38 -92 53 -19 23 8 14 50 -17z
m-1070 -48 c6 -18 8 -42 3 -53 -6 -18 -11 -13 -29 36 -22 57 -21 86 2 63 7 -7
17 -28 24 -46z m917 49 c-3 -5 3 -11 12 -13 16 -3 15 -5 -4 -16 -21 -12 -23
-11 -19 10 6 30 5 28 12 28 3 0 3 -4 -1 -9z m-407 -17 c-9 -9 -21 -13 -28 -9
-14 9 5 25 30 25 12 0 12 -3 -2 -16z m1833 -27 c-16 -16 -26 0 -10 19 9 11 15
12 17 4 2 -6 -1 -17 -7 -23z m-1911 3 c0 -5 -5 -10 -11 -10 -5 0 -7 5 -4 10 3
6 8 10 11 10 2 0 4 -4 4 -10z m1950 -18 c0 -10 -7 -27 -16 -38 -12 -15 -15
-16 -10 -2 3 9 0 19 -7 21 -8 3 -5 10 8 21 25 20 25 20 25 -2z m-163 -17 c-4
-8 -11 -15 -17 -15 -14 0 -13 27 3 33 16 6 21 1 14 -18z m-1140 -64 c-14 -26
-28 -65 -32 -87 -11 -71 -15 -82 -31 -98 -17 -17 -39 -22 -30 -7 4 5 -21 20
-53 32 -33 13 -57 27 -55 31 3 4 24 8 47 8 76 0 75 16 -3 42 -68 22 -87 37
-59 47 7 2 9 -1 5 -8 -4 -6 -3 -11 2 -11 5 0 22 20 37 44 27 42 63 65 75 47 3
-4 24 -11 48 -15 40 -6 43 -5 53 21 7 16 13 23 16 15 3 -7 -6 -34 -20 -61z
m1200 12 c-7 -16 -14 -20 -20 -14 -7 7 -6 20 2 38 9 20 14 24 21 13 5 -7 3
-23 -3 -37z m-1731 11 c-5 -14 -9 -15 -19 -5 -9 9 -9 14 3 21 18 11 24 6 16
-16z m1770 -11 c-4 -9 -2 -19 3 -22 6 -4 1 -17 -9 -31 l-20 -25 0 28 c0 28 15
67 26 67 4 0 3 -8 0 -17z m-2206 -39 c0 -7 -4 -15 -9 -18 -11 -7 -21 17 -21
47 1 22 1 22 15 3 8 -11 15 -25 15 -32z m2090 27 c0 -12 -29 -35 -36 -28 -11
10 5 37 21 37 8 0 15 -4 15 -9z m-1870 -15 c0 -8 -4 -18 -10 -21 -5 -3 -10 3
-10 14 0 12 5 21 10 21 6 0 10 -6 10 -14z m1898 -58 c-6 -18 -28 -21 -28 -4 0
9 7 16 16 16 9 0 14 -5 12 -12z m-2025 -12 c3 -8 3 -16 0 -19 -9 -10 -33 5
-33 19 0 18 26 18 33 0z m1903 -7 c8 -14 -21 -43 -35 -35 -8 5 -8 13 -1 27 12
21 25 25 36 8z m144 -14 c-7 -8 -17 -15 -23 -15 -5 0 -2 9 8 20 21 23 35 19
15 -5z m5 -25 c-10 -11 -20 -18 -23 -15 -7 6 18 35 31 35 5 0 2 -9 -8 -20z
m-235 0 c0 -5 -5 -10 -11 -10 -5 0 -7 5 -4 10 3 6 8 10 11 10 2 0 4 -4 4 -10z
m138 -25 c-6 -14 -15 -22 -20 -17 -12 12 1 42 18 42 11 0 11 -5 2 -25z m-1257
-26 c25 -16 59 -34 76 -40 24 -8 32 -18 36 -42 2 -18 4 -33 3 -34 -1 -2 -24
18 -52 43 -27 25 -76 61 -109 80 -45 27 -52 34 -30 29 17 -3 51 -20 76 -36z
m-461 22 c0 -17 -15 -19 -45 -6 l-30 13 38 1 c20 1 37 -3 37 -8z m1755 -21
c-1 -11 -7 -26 -13 -32 -9 -9 -12 -7 -12 8 0 11 5 25 12 32 15 15 15 16 13 -8z
m-1165 -36 c0 -8 -4 -12 -10 -9 -5 3 -10 10 -10 16 0 5 5 9 10 9 6 0 10 -7 10
-16z m928 -21 c-6 -7 -14 -13 -19 -13 -13 0 -11 24 3 38 16 16 31 -7 16 -25z
m162 -18 c-7 -9 -15 -13 -19 -10 -3 3 1 10 9 15 21 14 24 12 10 -5z m-96 -20
c-4 -8 -10 -15 -15 -15 -5 0 -9 7 -9 15 0 8 7 15 15 15 9 0 12 -6 9 -15z
m-241 -36 c-6 -6 -19 -9 -29 -6 -17 3 -16 5 6 14 28 12 39 8 23 -8z m272 2
c-3 -6 -11 -11 -17 -11 -6 0 -6 6 2 15 14 17 26 13 15 -4z m-212 -38 c-7 -2
-19 -2 -25 0 -7 3 -2 5 12 5 14 0 19 -2 13 -5z m127 -2 c0 -5 -9 -11 -20 -14
-11 -3 -20 -1 -20 3 0 5 8 11 18 13 9 3 18 5 20 6 1 0 2 -3 2 -8z"/>
<path d="M997 2536 c-15 -23 -15 -24 3 -19 11 3 20 14 20 24 0 25 -4 24 -23
-5z"/>
<path d="M2257 2440 c-14 -11 -37 -43 -51 -71 -39 -79 -15 -106 44 -46 34 34
70 97 70 122 0 21 -33 19 -63 -5z"/>
<path d="M1593 2428 c-13 -16 -33 -98 -33 -132 0 -21 5 -26 25 -26 41 0 85 67
85 131 0 34 -56 54 -77 27z"/>
<path d="M1835 2426 c-21 -21 -24 -30 -15 -41 14 -16 49 -7 64 18 8 12 6 21
-6 33 -15 15 -18 15 -43 -10z"/>
<path d="M1324 2408 c-44 -21 -83 -130 -59 -167 14 -23 54 -11 81 24 31 41 44
116 24 140 -14 17 -17 17 -46 3z"/>
<path d="M774 2364 c-22 -33 -6 -52 33 -38 31 10 43 42 21 55 -22 15 -37 10
-54 -17z"/>
<path d="M1268 1983 c6 -2 18 -2 25 0 6 3 1 5 -13 5 -14 0 -19 -2 -12 -5z"/>
<path d="M1195 1127 c-12 -9 -14 -16 -7 -21 6 -3 16 3 22 14 13 24 10 25 -15
7z"/>
<path d="M1149 1093 c-13 -16 -12 -17 4 -4 9 7 17 15 17 17 0 8 -8 3 -21 -13z"/>
<path d="M316 2984 c-3 -8 1 -14 9 -14 20 0 28 17 11 23 -8 3 -17 -1 -20 -9z"/>
<path d="M635 1873 c-22 -26 -41 -41 -43 -34 -3 8 -10 5 -19 -9 -17 -24 -10
-39 10 -22 8 7 17 9 20 5 4 -3 7 -1 7 5 0 6 13 23 28 39 23 23 49 64 39 63 -1
-1 -20 -21 -42 -47z"/>
<path d="M636 1813 c-6 -14 -5 -15 5 -6 7 7 10 15 7 18 -3 3 -9 -2 -12 -12z"/>
<path d="M486 1485 c-3 -9 0 -15 10 -15 9 0 12 5 8 12 -5 8 -2 9 10 5 10 -4
15 -3 11 3 -9 15 -32 12 -39 -5z"/>
<path d="M776 1365 c-4 -15 -5 -30 -1 -33 3 -3 5 2 5 11 0 8 6 17 13 20 9 3 9
8 1 16 -9 10 -13 6 -18 -14z"/>
<path d="M830 1340 c0 -16 5 -30 11 -30 6 0 8 7 5 16 -4 9 -1 23 5 30 9 11 8
14 -5 14 -11 0 -16 -9 -16 -30z"/>
<path d="M540 1350 c0 -5 5 -10 11 -10 5 0 7 5 4 10 -3 6 -8 10 -11 10 -2 0
-4 -4 -4 -10z"/>
<path d="M932 1341 c7 -11 16 -17 20 -15 5 3 2 12 -6 20 -21 20 -28 17 -14 -5z"/>
<path d="M470 1340 c0 -5 5 -10 11 -10 5 0 7 5 4 10 -3 6 -8 10 -11 10 -2 0
-4 -4 -4 -10z"/>
<path d="M692 1330 c0 -14 2 -19 5 -12 2 6 2 18 0 25 -3 6 -5 1 -5 -13z"/>
<path d="M970 1339 c0 -5 5 -7 10 -4 6 3 10 8 10 11 0 2 -4 4 -10 4 -5 0 -10
-5 -10 -11z"/>
<path d="M600 1320 c0 -5 5 -10 11 -10 5 0 7 5 4 10 -3 6 -8 10 -11 10 -2 0
-4 -4 -4 -10z"/>
<path d="M1190 1310 c0 -5 7 -7 15 -4 8 4 15 8 15 10 0 2 -7 4 -15 4 -8 0 -15
-4 -15 -10z"/>
<path d="M915 1300 c-3 -5 -1 -10 4 -10 6 0 11 5 11 10 0 6 -2 10 -4 10 -3 0
-8 -4 -11 -10z"/>
<path d="M1110 1170 c0 -5 5 -10 11 -10 5 0 7 5 4 10 -3 6 -8 10 -11 10 -2 0
-4 -4 -4 -10z"/>
<path d="M311 1135 c18 -42 29 -53 29 -29 0 12 -9 29 -21 40 -21 19 -21 19 -8
-11z"/>
<path d="M210 1086 c0 -26 61 -87 83 -84 29 4 35 29 7 26 -18 -2 -26 5 -36 32
-7 19 -13 27 -13 18 -1 -21 -21 -24 -21 -4 0 8 -4 18 -10 21 -5 3 -10 -1 -10
-9z"/>
<path d="M379 733 c-13 -16 -12 -17 4 -4 9 7 17 15 17 17 0 8 -8 3 -21 -13z"/>
<path d="M348 686 c-20 -15 -23 -26 -8 -26 5 0 14 9 20 20 12 23 11 24 -12 6z"/>
<path d="M1979 442 c78 -79 107 -117 154 -204 60 -111 84 -187 55 -175 -13 5
-14 1 -5 -29 10 -34 10 -34 73 -34 59 0 62 1 57 23 -11 45 -73 168 -112 224
-58 82 -216 237 -272 267 -44 25 -42 21 50 -72z"/>
<path d="M372 293 c-72 -121 -108 -190 -135 -255 l-16 -38 88 0 88 0 6 128 c3
72 14 160 25 205 11 42 18 77 17 77 -2 0 -34 -53 -73 -117z"/>
<path d="M1826 312 c-3 -5 1 -9 9 -9 8 0 12 4 9 9 -3 4 -7 8 -9 8 -2 0 -6 -4
-9 -8z"/>
<path d="M1831 274 c0 -11 3 -14 6 -6 3 7 2 16 -1 19 -3 4 -6 -2 -5 -13z"/>
<path d="M1878 205 c-9 -20 -9 -41 1 -93 23 -121 17 -112 72 -112 l49 0 -19
48 c-31 77 -81 182 -86 182 -3 0 -11 -11 -17 -25z"/>
<path d="M2339 74 l14 -74 69 0 70 0 -54 49 c-29 26 -67 60 -83 74 l-31 25 15
-74z"/>
</g>
</svg>
