<?xml version="1.0" standalone="no"?>
<!DOCTYPE svg PUBLIC "-//W3C//DTD SVG 20010904//EN"
 "http://www.w3.org/TR/2001/REC-SVG-20010904/DTD/svg10.dtd">
<svg version="1.0" xmlns="http://www.w3.org/2000/svg"
 width="300.000000pt" height="300.000000pt" viewBox="0 0 300.000000 300.000000"
 preserveAspectRatio="xMidYMid meet">
<metadata>
Created by potrace 1.14, written by Peter Selinger 2001-2017
</metadata>
<g transform="translate(0.000000,300.000000) scale(0.100000,-0.100000)"
fill="#000000" stroke="none">
<path d="M1586 2885 c-12 -12 -13 -21 -6 -36 13 -23 33 -25 51 -3 9 11 10 20
3 32 -15 23 -29 25 -48 7z"/>
<path d="M318 2853 c-58 -4 -72 -14 -41 -31 14 -8 10 -18 -32 -71 -26 -33 -52
-61 -56 -61 -5 0 -9 27 -9 60 0 45 4 62 15 66 32 13 13 24 -39 24 -56 0 -82
-14 -47 -25 23 -7 30 -41 33 -177 3 -87 1 -99 -17 -112 -11 -8 -18 -16 -15
-19 9 -8 130 5 130 14 0 5 -6 9 -14 9 -8 0 -22 10 -30 22 -18 26 -22 108 -5
108 6 0 36 -24 67 -54 49 -47 54 -56 43 -70 -8 -9 -12 -18 -10 -20 8 -6 139 7
139 14 0 5 -14 13 -31 19 -34 12 -169 127 -169 143 0 21 95 121 127 135 19 7
31 18 28 23 -3 6 -7 9 -8 8 -1 -1 -28 -3 -59 -5z"/>
<path d="M1188 2843 c7 -3 16 -2 19 1 4 3 -2 6 -13 5 -11 0 -14 -3 -6 -6z"/>
<path d="M1845 2840 c3 -5 -10 -14 -29 -20 -37 -12 -95 -69 -121 -120 -9 -17
-15 -48 -13 -68 4 -52 30 -54 79 -6 39 38 39 38 39 12 0 -14 7 -31 15 -38 12
-10 21 -6 50 23 39 39 49 74 11 38 -14 -13 -29 -20 -35 -16 -17 10 -13 40 14
107 30 74 31 84 5 91 -11 3 -18 1 -15 -3z m-25 -80 c0 -45 -77 -139 -101 -124
-25 15 3 88 47 123 34 27 54 27 54 1z"/>
<path d="M1177 2823 c-4 -3 -7 -14 -7 -23 0 -10 -7 -23 -16 -31 -13 -11 -13
-14 -1 -21 9 -4 14 -16 12 -25 -40 -192 -69 -295 -88 -308 -11 -8 -19 -16 -16
-19 2 -2 33 -5 69 -7 52 -3 65 -1 65 11 0 8 -9 16 -20 19 -29 5 -33 17 -24 68
14 71 30 96 67 104 47 10 79 44 91 98 14 65 -2 95 -52 99 -29 3 -37 7 -37 23
0 19 -29 27 -43 12z m84 -63 c23 -13 25 -50 3 -96 -21 -43 -51 -62 -70 -42
-16 17 -2 103 23 130 19 21 19 21 44 8z"/>
<path d="M1565 2780 c-24 -25 -27 -33 -16 -40 13 -7 12 -17 -4 -68 -26 -87 -8
-114 50 -76 30 20 32 34 5 34 -28 0 -26 51 4 117 13 28 22 54 18 57 -12 12
-29 5 -57 -24z"/>
<path d="M1395 2778 c-68 -53 -73 -188 -8 -204 29 -8 81 13 93 37 18 33 10 41
-20 19 -34 -24 -68 -23 -84 3 -16 26 4 51 45 55 85 8 111 112 28 112 -14 0
-39 -10 -54 -22z m65 -23 c17 -20 -3 -45 -36 -45 -28 0 -31 16 -7 42 20 22 27
22 43 3z"/>
<path d="M956 2759 c-38 -30 -56 -71 -56 -127 0 -56 20 -82 64 -82 60 0 127
109 111 181 -11 51 -72 65 -119 28z m82 -56 c7 -68 -56 -144 -93 -113 -21 18
-19 59 6 100 26 42 38 51 64 48 15 -2 21 -12 23 -35z"/>
<path d="M771 2729 c-23 -24 -41 -47 -41 -51 0 -4 -4 -8 -9 -8 -5 0 -6 20 -3
45 6 53 -10 59 -55 21 -28 -25 -27 -50 2 -26 28 23 28 2 -1 -79 -22 -61 -26
-83 -17 -92 19 -19 41 -3 69 53 37 74 64 109 76 102 6 -4 8 -2 4 4 -3 6 -2 13
4 17 16 10 12 -23 -11 -75 -36 -84 -10 -126 47 -76 29 24 28 50 -1 26 -28 -23
-28 -2 1 70 21 54 25 76 17 88 -18 30 -40 24 -82 -19z"/>
<path d="M516 2729 c-78 -61 -73 -208 7 -209 22 0 85 40 92 59 10 24 -4 25
-49 0 -38 -20 -46 -21 -61 -9 -9 8 -15 24 -13 39 3 22 9 27 45 32 49 6 83 33
83 64 0 47 -57 61 -104 24z m68 -26 c5 -11 1 -22 -10 -30 -26 -19 -54 -16 -54
5 0 38 52 58 64 25z"/>
<path d="M465 2470 c-16 -7 -17 -9 -3 -9 9 -1 20 4 23 9 7 11 7 11 -20 0z"/>
<path d="M1283 2417 c-40 -5 -73 -14 -73 -20 0 -5 13 -6 33 -3 67 14 383 18
441 6 l58 -12 -24 -25 c-18 -19 -29 -23 -52 -19 -20 4 -35 1 -49 -11 -12 -12
-35 -18 -65 -18 -41 0 -48 -3 -60 -27 -10 -21 -20 -28 -41 -28 -16 0 -37 -10
-50 -24 -14 -15 -29 -22 -42 -19 -21 6 -59 -22 -59 -43 0 -22 -49 -49 -63 -35
-6 6 -23 11 -38 11 -17 0 -32 9 -43 25 -10 16 -26 25 -42 25 -13 0 -38 10 -54
22 -26 19 -33 20 -56 9 -25 -11 -29 -10 -49 15 l-21 27 75 37 c42 21 94 43
116 50 22 8 34 15 27 18 -23 7 -83 -8 -89 -24 -3 -7 -13 -14 -23 -14 -10 0
-51 -19 -92 -42 -115 -65 -173 -108 -215 -160 -26 -31 -26 -32 -3 -12 24 21
26 21 43 4 19 -19 132 -26 143 -8 3 5 11 4 20 -3 7 -6 24 -9 37 -5 17 4 30 0
42 -14 10 -11 24 -20 32 -20 8 0 11 -4 8 -10 -3 -6 -19 -3 -39 6 -30 15 -36
15 -64 0 -17 -9 -51 -16 -76 -16 -32 0 -52 -7 -73 -24 -20 -17 -36 -22 -58
-19 -33 5 -60 -16 -66 -51 -3 -11 -21 -25 -49 -35 -35 -13 -46 -22 -50 -44 -3
-16 -15 -33 -30 -40 -20 -11 -24 -20 -22 -45 1 -18 -5 -43 -14 -57 -22 -34
-15 -79 14 -83 38 -6 70 23 74 65 2 29 8 39 23 41 25 5 45 30 45 58 0 18 7 23
35 26 28 3 35 1 33 -11 -2 -9 -12 -17 -23 -19 -30 -6 -45 -22 -45 -47 0 -13
-11 -30 -25 -39 -15 -10 -25 -26 -25 -39 0 -13 -11 -34 -24 -46 -15 -15 -26
-38 -29 -64 -2 -23 -8 -52 -12 -64 -5 -15 -1 -27 13 -41 37 -37 92 0 92 63 1
29 1 29 16 10 15 -19 14 -43 -1 -92 -5 -17 0 -28 20 -47 26 -25 27 -27 11 -50
-9 -14 -16 -37 -16 -51 0 -14 -4 -25 -9 -25 -15 0 -23 -38 -12 -58 8 -15 6
-23 -9 -37 -15 -13 -19 -31 -19 -79 0 -33 -1 -74 -3 -90 -2 -22 4 -33 25 -50
27 -20 30 -20 57 -4 27 15 30 15 45 -2 15 -17 14 -20 -9 -43 -30 -31 -32 -44
-9 -91 15 -32 15 -36 -1 -61 -16 -24 -16 -27 0 -54 16 -27 16 -30 0 -52 -22
-32 -20 -85 4 -109 26 -26 36 -25 64 3 18 18 23 32 19 53 -5 29 -5 29 15 -6
17 -30 18 -37 6 -51 -18 -20 -18 -43 1 -59 8 -7 15 -24 15 -39 0 -15 5 -32 12
-39 18 -18 63 -14 83 8 17 19 17 32 0 87 -5 16 -2 23 14 28 28 9 41 -1 41 -31
0 -41 18 -64 50 -64 16 0 32 4 35 10 6 10 55 -16 55 -30 0 -5 -20 -20 -45 -34
-25 -15 -63 -51 -86 -81 -31 -41 -52 -58 -87 -71 -26 -10 -54 -23 -62 -29 -8
-7 -24 -15 -35 -20 -17 -6 -14 -10 25 -27 100 -44 332 -109 345 -97 2 3 -9 31
-25 64 -16 33 -30 65 -30 71 0 7 20 17 44 23 l45 11 6 55 c4 30 9 55 12 55 2
0 16 -6 31 -14 15 -7 77 -16 137 -20 99 -6 114 -5 149 13 43 23 56 17 56 -26
0 -47 16 -68 63 -80 l46 -13 -16 -47 c-9 -27 -22 -57 -30 -68 -24 -36 -17 -43
35 -33 26 5 67 13 92 18 89 17 165 41 180 58 8 10 25 16 39 14 73 -11 13 54
-82 89 -29 10 -59 29 -67 41 -30 46 -80 95 -114 113 -20 11 -36 23 -36 27 0
14 20 18 38 7 29 -18 69 -4 77 28 14 55 50 69 39 15 -6 -31 11 -57 42 -66 26
-8 54 16 54 45 0 10 6 19 14 19 8 0 24 12 35 26 15 19 21 22 21 11 0 -9 -5
-19 -11 -22 -6 -4 -9 -19 -8 -33 1 -15 -1 -39 -6 -55 -9 -34 8 -57 44 -57 40
0 72 38 72 86 0 98 5 135 19 144 25 16 27 12 24 -63 -3 -86 12 -117 56 -117
44 0 60 23 59 83 -1 29 2 67 6 85 5 20 3 37 -4 46 -9 10 -6 17 13 30 23 15 25
14 31 -4 4 -11 11 -20 16 -20 5 0 9 -6 8 -13 -5 -39 27 -65 60 -48 23 13 35
56 22 78 -6 11 -5 23 2 35 9 14 9 23 -1 38 -7 12 -10 31 -6 46 5 18 0 34 -14
53 -14 20 -17 32 -10 44 6 12 4 26 -9 47 -13 23 -15 32 -5 42 20 20 15 59 -8
65 -15 4 -19 11 -15 24 3 10 1 28 -5 39 -6 12 -9 28 -6 37 9 22 36 -3 36 -33
0 -13 9 -29 19 -36 14 -9 17 -16 11 -29 -7 -12 -4 -24 9 -41 13 -16 17 -29 10
-39 -13 -20 -11 -83 3 -97 18 -18 73 -14 91 6 20 22 22 43 5 60 -9 9 -9 15 0
24 17 17 15 59 -3 85 -10 14 -12 24 -5 28 15 9 12 46 -6 66 -15 17 -15 22 6
66 20 44 21 49 7 79 -14 29 -14 35 4 68 21 40 24 67 9 82 -6 6 -6 21 2 42 11
29 10 34 -15 59 -17 19 -25 35 -21 49 3 12 -1 26 -10 33 -10 8 -15 27 -15 50
2 29 3 31 6 9 2 -14 11 -32 19 -38 8 -7 14 -22 14 -34 0 -42 53 -63 79 -32 19
22 16 97 -3 111 -9 7 -16 22 -16 34 0 14 -9 25 -25 31 -19 7 -25 17 -25 40 0
33 -38 80 -64 80 -9 0 -22 13 -31 30 -12 23 -24 31 -54 36 -34 5 -38 9 -37 35
l1 28 21 -26 c16 -21 26 -25 46 -20 17 5 28 3 31 -6 3 -9 7 -9 17 0 21 19 4
43 -31 43 -21 0 -37 8 -51 25 -16 21 -28 25 -68 25 -39 0 -52 4 -60 20 -10 18
-8 20 27 20 l37 0 -39 40 c-21 22 -47 40 -57 40 -10 0 -18 5 -18 11 0 8 -4 8
-14 0 -10 -9 -17 -7 -27 5 -9 12 -23 14 -50 10 -26 -4 -40 -2 -49 9 -23 28 13
36 83 17 20 -5 37 -7 36 -3 -3 34 -282 199 -384 226 -163 43 -387 56 -562 32z
m522 -45 c-3 -3 -11 0 -18 7 -9 10 -8 11 6 5 10 -3 15 -9 12 -12z m181 -89
c-43 -22 -91 2 -49 25 10 6 27 6 46 -1 l30 -10 -27 -14z m-111 -5 c-19 -11
-30 -5 -21 11 4 6 14 7 22 4 15 -5 14 -7 -1 -15z m-273 -175 c16 -14 23 -15
38 -5 26 16 33 15 27 -2 -7 -19 12 -36 41 -36 17 0 23 4 18 15 -8 21 -1 19 29
-11 17 -17 33 -24 47 -21 27 7 55 -3 37 -13 -6 -5 -9 -15 -6 -24 8 -21 57 -33
67 -16 5 8 27 -7 71 -50 35 -35 55 -56 44 -48 -11 8 -56 32 -100 52 -43 21
-90 49 -102 63 -14 14 -33 23 -46 22 -23 -2 -31 1 -106 32 -24 11 -48 19 -53
19 -5 0 -17 7 -25 16 -9 8 -24 13 -34 11 -11 -3 -22 -1 -25 4 -10 16 59 9 78
-8z m-234 -21 c-8 -21 -21 -31 -50 -39 -38 -10 -39 -10 -36 16 3 27 37 51 75
51 19 0 20 -3 11 -28z m245 -48 c3 -3 -3 -14 -14 -25 -19 -19 -20 -19 -89 1
-39 12 -70 23 -70 25 0 7 166 6 173 -1z m-172 -16 c19 -6 40 -18 47 -25 7 -7
18 -13 23 -13 17 0 9 -17 -15 -29 -21 -12 -34 -9 -106 20 l-83 34 39 12 c51
15 55 15 95 1z m818 -8 c10 -5 24 -23 31 -39 7 -17 26 -36 45 -45 19 -9 35
-26 39 -40 4 -17 15 -26 35 -31 19 -4 37 -18 50 -41 14 -24 28 -34 45 -34 24
0 36 -16 36 -50 0 -10 10 -27 23 -37 23 -18 48 -91 27 -78 -6 3 -10 16 -10 29
0 26 -17 46 -40 46 -8 0 -21 9 -27 19 -7 11 -27 27 -45 35 -18 9 -38 26 -43
38 -6 13 -22 29 -37 36 -16 7 -32 22 -38 32 -9 17 -41 55 -72 85 -5 6 -22 22
-36 38 -15 15 -32 27 -39 27 -6 0 -15 5 -18 10 -8 13 50 13 74 0z m-1442 -45
c-4 -9 -19 -15 -40 -15 -29 0 -37 -5 -47 -30 -12 -28 -23 -34 -75 -42 -14 -2
-21 -12 -23 -35 -3 -25 -10 -34 -34 -42 -39 -14 -38 -14 -38 3 0 8 10 16 23
18 15 2 25 13 31 35 8 26 18 35 50 45 33 10 43 19 51 46 8 29 12 32 37 27 15
-4 35 -2 45 4 21 11 28 7 20 -14z m388 -16 c-7 -10 -31 -21 -75 -33 -18 -5
-14 0 15 18 41 27 71 34 60 15z m75 -9 c0 -5 -7 -10 -15 -10 -8 0 -15 5 -15
10 0 6 7 10 15 10 8 0 15 -4 15 -10z m-400 -10 c0 -5 -7 -10 -16 -10 -8 0 -12
5 -9 10 3 6 10 10 16 10 5 0 9 -4 9 -10z m-62 -32 c-4 -10 -68 -32 -68 -23 0
2 3 10 6 19 7 19 68 23 62 4z m508 -25 c-1 -24 35 -28 73 -9 20 11 32 12 36 5
10 -15 6 -17 -62 -28 -34 -5 -79 -19 -100 -30 -21 -10 -49 -24 -63 -31 -58
-26 -100 -51 -100 -58 0 -5 -10 -8 -22 -8 -15 1 -24 -6 -28 -24 -3 -14 -13
-25 -22 -25 -20 0 -49 -25 -42 -36 6 -11 -73 -117 -98 -130 -10 -5 -18 -8 -18
-5 0 2 -2 11 -5 19 -4 9 1 13 17 13 26 -1 38 32 16 45 -10 6 -8 9 8 9 20 0 44
17 44 32 0 15 -42 8 -67 -12 -24 -19 -53 -27 -53 -15 0 24 32 75 47 75 28 0
82 37 100 69 16 26 91 73 141 86 12 4 22 10 22 16 0 5 16 16 36 24 45 19 50
19 34 0 -10 -12 -9 -16 5 -21 23 -9 68 13 62 31 -5 12 4 18 34 24 4 0 6 -7 5
-16z m-456 -10 c-1 -20 -56 -99 -67 -96 -7 3 -15 -8 -19 -24 -4 -15 -16 -34
-26 -41 -10 -7 -18 -25 -18 -40 0 -29 -34 -52 -76 -52 -13 0 -26 -4 -29 -10
-3 -5 -10 -10 -16 -10 -17 0 -9 22 16 42 14 11 25 30 25 43 0 13 10 29 25 39
16 10 25 26 25 41 0 18 5 25 20 25 11 0 28 12 38 28 12 19 24 26 39 24 14 -2
27 4 35 17 13 21 28 28 28 14z m1310 -43 c5 -10 23 -23 40 -28 17 -6 34 -22
39 -35 5 -14 21 -27 35 -31 24 -6 28 -12 40 -69 4 -17 16 -31 31 -37 14 -5 25
-17 25 -27 1 -17 1 -17 11 0 8 13 7 24 -5 42 -9 13 -16 35 -16 48 0 14 -7 30
-15 37 -18 15 -47 71 -40 78 3 3 19 -4 35 -16 16 -12 32 -22 35 -22 15 0 55
-47 55 -65 0 -12 9 -30 20 -40 13 -12 20 -31 20 -57 0 -25 5 -41 15 -44 11 -5
12 -10 2 -26 -10 -17 -8 -23 23 -49 27 -22 31 -32 22 -41 -15 -15 -16 -50 -1
-65 7 -7 9 -19 5 -29 -6 -15 -9 -15 -31 6 -18 17 -23 30 -19 47 8 31 -4 29
-16 -3 -8 -21 -6 -34 10 -61 11 -19 20 -47 20 -62 0 -16 7 -34 15 -41 22 -18
18 -32 -7 -28 -19 3 -22 8 -20 36 3 26 -1 35 -16 38 -10 3 -23 18 -29 32 l-11
27 -1 -26 c-1 -15 6 -32 14 -39 9 -8 12 -22 8 -43 -5 -25 -2 -34 22 -53 26
-20 28 -25 17 -48 -10 -22 -8 -29 10 -46 20 -18 21 -23 9 -42 -11 -17 -10 -26
5 -54 16 -29 16 -36 4 -59 -11 -21 -12 -30 -2 -45 16 -26 15 -30 -7 -30 -29 0
-32 13 -14 59 15 38 15 42 -1 60 -11 12 -15 27 -11 40 4 13 -1 27 -13 39 -11
11 -24 32 -29 48 -6 18 -21 34 -41 43 -18 8 -32 21 -32 28 0 7 -4 13 -10 13
-5 0 -10 -8 -10 -17 0 -9 -5 -32 -12 -50 -9 -25 -9 -39 -2 -51 6 -10 9 -31 7
-49 -4 -24 0 -34 15 -42 18 -9 19 -15 9 -40 -9 -24 -8 -33 5 -48 10 -12 14
-29 11 -51 -4 -22 0 -39 12 -52 10 -11 14 -26 10 -39 -3 -11 -1 -30 6 -43 9
-16 9 -23 0 -26 -6 -2 -11 -10 -11 -18 0 -8 -4 -14 -10 -14 -5 0 -7 13 -4 30
4 19 1 38 -9 54 -9 13 -14 32 -11 43 3 11 -2 25 -12 34 -16 12 -17 12 -11 -4
5 -12 0 -28 -13 -44 -11 -14 -20 -36 -20 -48 0 -12 -3 -25 -7 -28 -10 -11 -33
65 -27 90 4 13 -1 34 -10 47 -12 19 -13 31 -5 55 7 19 7 36 1 47 -13 24 -24
-83 -11 -108 6 -10 7 -32 4 -48 -3 -16 -1 -38 5 -49 8 -16 8 -31 -1 -60 -10
-32 -9 -43 4 -61 14 -20 14 -25 1 -46 -11 -17 -14 -35 -8 -69 6 -42 5 -47 -12
-43 -16 3 -18 14 -19 78 0 41 -5 84 -11 95 -7 11 -10 34 -7 50 3 22 -1 36 -16
49 -19 17 -19 21 -6 46 13 25 13 30 -5 53 -17 21 -18 29 -7 56 9 25 9 36 -1
52 -10 16 -10 27 -1 53 17 48 6 77 -41 106 -36 22 -40 28 -33 50 9 31 8 78 -2
108 -5 16 -3 22 8 22 30 0 68 24 73 46 7 28 32 21 36 -9 4 -29 47 -36 65 -11
18 24 16 55 -4 84 -10 14 -16 33 -15 43 4 22 -25 57 -46 57 -10 0 -13 7 -8 23
3 12 6 36 7 52 1 22 3 24 6 10 3 -11 14 -30 24 -43 l18 -24 -2 55 c-2 36 -8
62 -20 74 -9 11 -17 29 -17 40 0 26 -24 73 -71 144 -32 48 -35 56 -18 52 11
-3 24 -13 29 -23z m-305 -20 c4 -6 23 -7 45 -4 48 8 72 -6 152 -87 77 -78 92
-103 83 -136 l-7 -28 -24 40 c-13 22 -24 48 -24 59 0 25 -61 84 -96 91 -16 4
-40 12 -53 18 -44 22 -101 -4 -101 -45 0 -18 -2 -18 -29 4 -34 26 -38 44 -15
76 16 23 58 30 69 12z m-1310 -79 c-3 -12 -13 -21 -21 -21 -12 0 -12 4 2 25
19 29 29 27 19 -4z m328 21 c16 -7 14 -12 -17 -47 -31 -35 -35 -37 -36 -18 0
27 17 73 27 72 5 0 16 -4 26 -7z m352 -42 c4 -6 28 -10 53 -10 26 0 59 0 75 0
15 -1 35 -1 45 -1 55 -1 92 -5 98 -12 11 -11 52 -8 59 4 5 7 11 5 18 -5 7 -8
21 -16 31 -18 11 -1 20 -12 22 -22 1 -10 9 -23 16 -27 7 -5 12 -21 10 -38 -3
-25 1 -31 22 -37 19 -4 26 -13 26 -30 0 -17 6 -24 20 -24 12 0 25 -10 32 -24
15 -33 37 -40 60 -19 23 21 18 70 -10 91 -9 7 -17 20 -17 30 0 9 -9 21 -20 27
-12 6 -19 17 -17 28 2 10 -2 24 -8 32 -21 25 5 16 30 -10 13 -14 34 -25 47
-25 16 0 23 -6 23 -18 0 -10 11 -29 24 -41 19 -18 24 -33 23 -63 -1 -33 4 -44
26 -62 16 -13 27 -32 27 -47 0 -13 7 -35 16 -47 12 -17 13 -30 6 -50 -10 -28
-1 -65 18 -77 7 -4 9 -22 5 -49 -5 -33 -2 -47 15 -69 19 -24 21 -31 10 -57 -7
-17 -10 -39 -7 -51 8 -30 -19 -105 -104 -285 -69 -146 -145 -221 -305 -303
l-81 -41 -102 6 c-98 7 -105 9 -164 48 -86 56 -199 171 -229 231 -23 46 -40
92 -82 220 -19 58 -20 91 -5 100 6 4 7 19 4 35 -4 16 -1 37 6 48 10 15 10 27
2 44 -8 18 -7 28 4 43 9 13 12 32 9 57 -3 20 -1 48 5 62 9 18 9 33 0 57 -9 26
-8 35 4 49 8 9 15 24 15 34 0 9 7 28 16 41 10 16 14 34 10 50 -11 44 39 109
154 199 49 38 56 41 65 26z m463 -28 c2 -20 10 -33 23 -37 22 -7 24 -16 8 -32
-15 -15 -3 -33 23 -33 16 0 19 -5 15 -21 -4 -15 1 -22 17 -29 23 -8 40 -45 30
-62 -10 -15 -32 -8 -37 13 -3 11 -15 23 -26 26 -12 3 -21 14 -21 24 0 12 -10
23 -25 29 -20 8 -24 15 -20 33 4 15 1 28 -9 36 -9 8 -16 22 -16 33 0 10 -7 21
-15 24 -22 9 -18 22 8 27 35 7 42 2 45 -31z m-928 4 c0 -3 -4 -8 -10 -11 -5
-3 -10 -1 -10 4 0 6 5 11 10 11 6 0 10 -2 10 -4z m0 -164 c7 -93 -6 -198 -27
-231 -9 -13 -19 -36 -23 -50 l-7 -26 -13 24 c-11 21 -10 26 4 36 9 7 16 24 16
39 0 15 6 37 14 49 8 12 16 35 18 52 2 23 -1 30 -17 33 -32 6 -36 16 -20 48
12 25 13 36 2 63 -11 29 -10 34 7 47 30 21 40 3 46 -84z m1850 68 c0 -10 -4
-21 -10 -25 -5 -3 -8 7 -7 24 2 31 17 32 17 1z m-533 -6 c16 -26 16 -27 -6
-45 -39 -31 -77 -22 -103 26 -4 6 8 11 25 11 17 1 36 9 42 18 14 22 22 20 42
-10z m-1486 -57 c-17 -17 -24 -1 -10 25 12 21 14 21 17 4 2 -10 -1 -23 -7 -29z
m382 -53 c3 -4 -2 -18 -13 -31 -10 -13 -16 -31 -13 -39 3 -8 -3 -24 -12 -34
-16 -17 -17 -25 -7 -57 9 -31 9 -42 -4 -61 -13 -20 -14 -29 -4 -53 11 -25 10
-32 -6 -50 -15 -17 -16 -24 -6 -51 8 -22 8 -35 1 -44 -6 -7 -9 -27 -7 -43 1
-17 -2 -32 -7 -33 -6 -2 -11 13 -13 32 -1 19 -7 51 -13 71 -9 29 -8 42 6 68
14 28 15 38 4 63 -9 23 -9 34 2 54 10 19 10 32 2 55 -12 31 0 62 52 132 21 28
27 31 38 21z m1262 -65 c0 -13 8 -35 18 -49 21 -30 21 -44 2 -60 -13 -10 -15
-9 -15 9 0 13 -10 26 -25 33 -22 10 -25 17 -25 66 0 54 0 54 23 39 12 -8 22
-25 22 -38z m-200 -44 c26 -56 33 -83 28 -106 -3 -17 0 -40 7 -55 10 -18 11
-29 2 -49 -17 -37 -15 -56 9 -81 20 -21 20 -23 3 -49 -14 -22 -15 -32 -5 -66
16 -51 7 -79 -25 -79 -29 0 -29 3 -7 36 16 24 15 28 -1 59 -14 25 -16 37 -7
53 16 30 13 53 -9 82 -15 19 -18 35 -13 68 4 32 2 47 -12 62 -15 17 -16 23 -5
51 11 27 11 35 -4 60 -12 20 -15 39 -11 59 4 17 9 30 11 30 3 0 21 -34 39 -75z
m-1211 -25 c7 0 19 -11 26 -25 12 -22 11 -27 -5 -45 -16 -18 -17 -26 -8 -51
10 -26 10 -29 -3 -19 -8 7 -14 27 -14 46 0 18 -10 50 -22 70 -20 34 -20 37 -4
31 10 -4 23 -7 30 -7z m-42 -100 c-2 -16 1 -37 7 -44 8 -9 10 -28 6 -49 -7
-37 1 -77 15 -77 4 0 6 9 3 20 -6 24 4 70 16 70 5 0 4 -13 -2 -29 -9 -23 -7
-34 6 -55 21 -32 14 -84 -9 -65 -9 7 -14 8 -14 1 0 -6 12 -20 27 -32 20 -16
24 -23 14 -33 -18 -18 -42 3 -74 65 -24 45 -29 68 -30 135 -1 52 3 90 12 107
18 32 29 26 23 -14z m-91 -114 c-6 -12 -10 -41 -8 -66 1 -34 -2 -45 -13 -45
-10 0 -14 8 -12 25 2 14 4 50 5 81 1 32 8 64 17 74 14 17 15 16 18 -15 2 -18
-1 -43 -7 -54z m1449 -110 c0 -2 -7 -19 -15 -37 -11 -27 -14 -29 -15 -12 0 28
10 53 21 53 5 0 9 -2 9 -4z m-1344 -111 c4 -8 3 -32 -1 -52 -6 -36 -7 -37 -21
-18 -23 31 -29 66 -13 76 20 13 29 11 35 -6z m64 0 c-7 -8 -16 -15 -21 -15 -5
0 -6 7 -3 15 4 8 13 15 21 15 13 0 13 -3 3 -15z m1188 -74 c3 -8 -1 -12 -9 -9
-7 2 -15 10 -17 17 -3 8 1 12 9 9 7 -2 15 -10 17 -17z m90 -76 c-8 -19 -7 -30
5 -49 22 -32 12 -89 -16 -102 -22 -9 -27 -35 -27 -160 0 -25 -6 -47 -15 -54
-9 -7 -17 -11 -19 -9 -3 4 6 69 19 134 12 57 -62 91 -75 35 -4 -19 -13 -26
-38 -28 -29 -3 -32 -6 -32 -38 0 -22 -4 -33 -11 -29 -6 4 -9 21 -8 39 4 39 -6
56 -32 56 -26 0 -24 12 10 66 l28 46 11 -29 c8 -24 17 -31 48 -36 41 -7 64 5
64 32 0 9 9 30 20 48 15 25 18 43 13 83 -5 40 -2 54 12 70 17 19 18 19 36 -16
14 -28 15 -41 7 -59z m-1273 47 c0 -31 -19 -28 -23 4 -3 18 0 25 10 22 7 -3
13 -14 13 -26z m-65 -74 c0 -16 -7 -40 -16 -53 -10 -15 -14 -34 -10 -49 7 -30
-7 -42 -25 -20 -11 14 -10 22 9 55 26 45 27 62 7 79 -11 9 -12 17 -3 33 10 20
11 20 24 2 8 -10 14 -32 14 -47z m1226 -16 c-14 -14 -16 -14 -22 1 -3 10 0 24
7 33 11 14 13 14 22 -1 6 -12 4 -22 -7 -33z m-1060 -49 c16 -32 30 -62 32 -68
3 -5 -4 -2 -15 7 -19 17 -20 17 -40 -5 -11 -12 -28 -27 -37 -32 -17 -10 -17
-12 -1 -47 18 -36 15 -68 -5 -68 -5 0 -10 12 -10 27 0 14 -7 34 -16 44 -14 16
-14 20 1 43 16 23 16 28 2 49 -12 19 -12 26 -2 40 7 9 17 17 24 17 6 0 17 11
23 25 6 14 12 25 14 25 1 0 15 -26 30 -57z m81 -155 c-3 -8 -6 -5 -6 6 -1 11
2 17 5 13 3 -3 4 -12 1 -19z m759 -35 c-10 -10 -19 5 -10 18 6 11 8 11 12 0 2
-7 1 -15 -2 -18z"/>
<path d="M1145 1810 c-8 -13 20 -24 40 -16 8 3 15 10 15 16 0 13 -47 13 -55 0z"/>
<path d="M1085 1760 c-17 -19 -17 -20 -1 -20 23 0 56 18 56 30 0 17 -36 11
-55 -10z"/>
<path d="M1131 1419 c-37 -15 -80 -48 -92 -72 -11 -21 -11 -21 7 -5 57 50 170
62 269 28 63 -22 80 -19 65 10 -21 39 -185 65 -249 39z"/>
<path d="M1654 1390 c-17 -6 -37 -16 -44 -25 -22 -26 -2 -33 57 -19 32 8 72
14 90 14 45 0 121 -27 162 -59 29 -22 33 -23 24 -6 -14 25 -61 69 -91 85 -31
16 -159 22 -198 10z"/>
<path d="M1087 1253 c-47 -3 -58 -7 -53 -19 4 -12 1 -14 -14 -9 -17 5 -19 2
-15 -30 7 -51 49 -103 88 -109 18 -3 76 -8 130 -11 82 -5 103 -3 128 12 16 9
29 23 29 29 0 17 -60 93 -92 117 -29 22 -90 28 -201 20z m242 -107 c23 -24 23
-28 9 -42 -23 -24 -245 -6 -265 21 -30 42 3 74 38 36 42 -45 108 -32 129 25
l10 25 28 -19 c15 -11 38 -32 51 -46z"/>
<path d="M1695 1215 c-62 -22 -157 -135 -113 -135 6 0 19 -6 27 -14 11 -9 59
-16 146 -20 l131 -7 32 34 c18 18 34 43 37 55 2 12 7 27 11 34 5 8 0 9 -15 5
-16 -4 -21 -2 -18 7 4 9 -22 19 -88 35 -109 24 -99 24 -150 6z m158 -66 c26
-17 47 -34 47 -38 0 -3 -7 -17 -16 -29 -14 -21 -20 -22 -127 -17 -62 2 -117 5
-122 5 -6 0 -16 9 -22 20 -11 17 -10 21 8 30 16 9 24 8 38 -4 10 -9 30 -16 45
-16 29 0 76 39 76 65 0 23 22 18 73 -16z"/>
<path d="M1527 1020 c-7 -26 2 -88 14 -96 11 -7 11 87 0 104 -6 10 -10 8 -14
-8z"/>
<path d="M1356 878 c-13 -28 -2 -53 24 -58 14 -3 37 -13 53 -24 25 -17 29 -17
52 -2 13 9 36 16 49 16 28 0 49 29 40 54 -9 23 -21 19 -20 -6 1 -20 -6 -24
-54 -31 -37 -6 -60 -6 -72 2 -10 6 -26 11 -37 11 -14 0 -21 8 -23 28 -3 22 -6
24 -12 10z"/>
<path d="M1180 726 c0 -9 4 -16 9 -16 5 0 21 -20 35 -44 44 -75 119 -107 254
-108 99 0 143 18 205 83 26 28 47 55 47 59 0 4 -37 7 -82 7 -46 0 -117 3 -158
7 -41 4 -111 8 -155 10 -44 1 -97 6 -117 10 -32 7 -38 6 -38 -8z m180 -52 c64
-12 114 -15 199 -11 l113 5 -23 -25 c-36 -38 -84 -54 -165 -55 -115 0 -170 17
-219 69 -29 32 -32 46 -7 39 9 -2 55 -12 102 -22z"/>
<path d="M691 2104 c0 -11 3 -14 6 -6 3 7 2 16 -1 19 -3 4 -6 -2 -5 -13z"/>
<path d="M656 2064 c-5 -14 -4 -15 9 -4 17 14 19 20 6 20 -5 0 -12 -7 -15 -16z"/>
<path d="M2450 2008 c0 -22 17 -42 24 -29 4 6 0 18 -8 27 -12 12 -16 12 -16 2z"/>
<path d="M2495 1980 c4 -6 16 -10 28 -8 18 2 22 -2 22 -27 1 -23 6 -31 21 -33
12 -2 26 -14 32 -28 8 -16 20 -24 37 -24 14 0 25 -4 25 -10 0 -5 -13 -10 -29
-10 -20 0 -34 8 -45 25 -10 14 -26 25 -39 25 -18 0 -19 -2 -7 -10 8 -5 11 -10
7 -10 -15 0 33 -59 53 -65 29 -9 80 4 80 21 0 8 5 14 10 14 6 0 3 11 -6 25 -9
14 -25 25 -35 25 -12 0 -23 10 -29 25 -6 15 -17 25 -29 25 -10 0 -26 11 -35
25 -16 24 -75 38 -61 15z"/>
<path d="M1258 73 c7 -3 16 -2 19 1 4 3 -2 6 -13 5 -11 0 -14 -3 -6 -6z"/>
<path d="M1608 73 c6 -2 18 -2 25 0 6 3 1 5 -13 5 -14 0 -19 -2 -12 -5z"/>
</g>
</svg>
